<svg width="19" height="16" viewBox="0 0 19 16" fill="none" xmlns="http://www.w3.org/2000/svg">
<path d="M15.6758 4.59091V14.1364C15.6758 14.498 15.5321 14.8449 15.2764 15.1006C15.0206 15.3563 14.6738 15.5 14.3121 15.5H2.03942C1.67776 15.5 1.33091 15.3563 1.07518 15.1006C0.81945 14.8449 0.675781 14.498 0.675781 14.1364V4.59091C0.675781 4.22925 0.81945 3.8824 1.07518 3.62667C1.33091 3.37094 1.67776 3.22727 2.03942 3.22727H14.3121C14.6738 3.22727 15.0206 3.37094 15.2764 3.62667C15.5321 3.8824 15.6758 4.22925 15.6758 4.59091ZM17.0394 0.5H4.08487C3.90404 0.5 3.73062 0.571834 3.60275 0.6997C3.47489 0.827566 3.40305 1.00099 3.40305 1.18182C3.40305 1.36265 3.47489 1.53607 3.60275 1.66394C3.73062 1.7918 3.90404 1.86364 4.08487 1.86364H17.0394V12.0909C17.0394 12.2717 17.1112 12.4452 17.2391 12.573C17.367 12.7009 17.5404 12.7727 17.7212 12.7727C17.9021 12.7727 18.0755 12.7009 18.2034 12.573C18.3312 12.4452 18.4031 12.2717 18.4031 12.0909V1.86364C18.4031 1.50198 18.2594 1.15513 18.0037 0.8994C17.7479 0.643668 17.4011 0.5 17.0394 0.5Z" fill="white"/>
</svg>
