<svg width="133" height="91" viewBox="0 0 133 91" fill="none" xmlns="http://www.w3.org/2000/svg">
<g clip-path="url(#clip0_111_300)">
<path d="M126.627 42.3741C126.627 42.3741 126.348 33.3054 121.502 25.278C117.325 18.359 111.365 17.6536 111.365 17.6536C111.365 17.6536 110.184 13.2985 106.04 9.9621C101.896 6.62573 93.3744 3.83796 93.3744 3.83796C76.3082 -3.88717 65.6698 2.43848 65.6698 2.43848C65.6698 2.43848 40.3602 -3.60728 20.0969 13.6679C20.0969 13.6679 9.87063 18.5045 5.69321 27.6403C3.38728 32.7009 4.37872 40.9522 4.37872 40.9522C-2.71732 49.2371 -0.767858 62.3587 7.19708 68.9306C10.9957 72.0543 15.6856 74.1255 20.5759 74.6517C22.492 74.8533 23.4612 74.3942 24.2632 76.3535C25.444 79.242 26.3686 82.2089 28.7414 84.2802C31.1587 86.385 33.9771 88.0196 36.9737 89.1392C42.7887 91.3 49.3611 91.5351 55.2318 89.4191C57.1812 88.7137 63.4307 88.6466 63.4307 88.6466C63.4307 88.6466 66.7392 91.3895 78.4805 90.9529C90.2218 90.5163 95.179 85.4221 97.8637 84.4705C99.9246 83.7428 102.453 82.1418 104.704 82.556C105.985 82.7911 107.132 83.4517 108.302 84.0115C111.577 85.5901 115.253 86.4522 118.862 86.1163C132.508 84.8512 133.945 69.0538 132.598 58.1938C131.238 47.2331 126.627 42.3741 126.627 42.3741Z" fill="white"/>
<path d="M119.671 42.848C119.671 42.848 119.421 34.748 115.071 27.578C111.321 21.398 105.971 20.768 105.971 20.768C105.971 20.768 104.911 16.878 101.191 13.898C97.4707 10.918 89.8207 8.42802 89.8207 8.42802C74.5007 1.52802 64.9507 7.17802 64.9507 7.17802C64.9507 7.17802 42.2307 1.77802 24.0407 17.208C24.0407 17.208 14.8607 21.528 11.1107 29.688C9.04071 34.208 9.93071 41.578 9.93071 41.578C3.56071 48.978 5.31071 60.698 12.4607 66.568C15.8707 69.358 20.0807 71.208 24.4707 71.678C26.1907 71.858 27.0607 71.448 27.7807 73.198C28.8407 75.778 29.6707 78.428 31.8007 80.278C33.9707 82.158 36.5007 83.618 39.1907 84.618C44.4107 86.548 50.3107 86.758 55.5807 84.868C57.3307 84.238 62.9407 84.178 62.9407 84.178C62.9407 84.178 65.9107 86.628 76.4507 86.238C86.9907 85.848 91.4407 81.298 93.8507 80.448C95.7007 79.798 97.9707 78.368 99.9907 78.738C101.141 78.948 102.171 79.538 103.221 80.038C106.161 81.448 109.461 82.218 112.701 81.918C124.951 80.788 126.241 66.678 125.031 56.978C123.811 47.188 119.671 42.848 119.671 42.848Z" fill="#BE643D"/>
<path d="M64.9207 85.108C64.9207 85.108 62.8607 84.788 59.7007 84.838C56.5407 84.888 52.0907 85.798 52.0907 85.798C52.0907 85.798 55.2307 84.368 56.6307 83.118C58.0307 81.858 58.3107 78.798 58.0807 76.978C57.8407 75.118 57.2107 74.178 52.4507 73.188L66.7107 72.398C61.9307 75.578 61.0607 82.128 64.9207 85.108ZM108.091 55.018C105.611 55.348 103.201 54.878 101.061 53.608C100.131 53.048 100.031 51.728 100.851 51.018C101.401 50.548 102.191 50.518 102.801 50.918C106.261 53.188 109.781 51.698 111.661 50.528C116.461 47.538 118.841 42.238 118.521 36.678C119.481 38.378 120.181 40.258 120.351 42.198C120.781 46.908 117.391 50.578 113.601 52.948C111.791 54.088 109.921 54.778 108.091 55.018Z" fill="white"/>
<path d="M118.811 59.708C117.731 59.708 116.561 59.478 115.451 58.798C114.311 58.098 113.671 57.158 113.101 55.998C112.631 55.048 111.971 54.458 110.761 54.548C109.911 54.618 109.091 55.098 108.241 54.978C109.371 52.978 111.181 51.378 113.311 50.508C114.291 50.108 115.391 49.858 116.391 50.168C116.501 50.868 116.031 51.518 115.761 52.178C115.291 53.348 115.481 54.748 116.241 55.748C116.761 56.428 117.751 57.158 118.661 57.098C119.261 57.058 119.681 56.548 120.271 56.498C122.101 56.368 122.561 59.048 120.761 59.468C120.181 59.608 119.521 59.708 118.811 59.708ZM101.211 22.628C100.481 22.718 99.7406 22.638 99.3606 21.998C98.8706 21.168 99.2806 20.128 100.191 19.808C102.701 18.928 105.521 19.088 107.971 20.068C110.111 20.928 111.401 22.388 112.251 23.378C113.101 24.368 113.681 26.328 113.681 26.328C111.551 24.478 110.341 21.568 101.211 22.628ZM91.6306 20.698C89.4706 20.608 91.5706 20.698 91.5506 20.698C88.1306 20.698 84.0406 19.518 83.4906 15.618C82.5006 8.51804 92.9806 11.278 96.8206 11.808C96.8206 11.808 93.7906 8.69804 89.8206 8.42804C87.9706 8.30804 86.0606 8.35804 84.2606 8.83804C82.2806 9.36804 81.2806 10.858 79.4806 11.598C78.1206 12.148 76.5706 11.938 75.1706 11.518C73.8806 11.128 69.6906 8.87804 69.5706 11.678C69.5406 12.448 70.0906 13.108 70.8406 13.218C73.8806 13.648 78.0806 15.008 79.6406 17.908C80.3606 19.238 80.5306 20.848 80.1106 22.298C79.9106 23.008 79.6206 23.918 80.2106 24.368C80.6606 24.718 81.3506 24.488 81.7606 24.088C82.1706 23.688 82.4306 23.148 82.8406 22.748C84.1206 21.488 85.2806 22.388 86.6406 22.868C88.2106 23.428 89.8706 23.698 91.5406 23.698C91.5806 23.698 88.6106 23.408 91.6506 23.698C94.6806 23.978 93.7806 20.788 91.6306 20.698ZM43.5606 17.438C41.9006 15.938 41.1106 10.098 45.8806 7.08804C45.8806 7.08804 43.2806 7.17804 41.1106 8.87804C39.2606 10.328 38.8906 12.838 39.3306 15.488C39.4406 16.168 38.9106 16.788 38.2206 16.748C35.7406 16.618 33.2706 17.068 31.1406 18.048C30.3306 18.428 30.0506 19.448 30.5306 20.208C30.7286 20.5153 31.0319 20.7397 31.3835 20.8391C31.7352 20.9386 32.1111 20.9062 32.4406 20.748C34.8306 19.648 38.3106 19.058 41.1006 19.758C43.9306 20.468 45.9206 21.288 48.1406 25.138C48.5206 25.788 49.3406 26.018 49.9606 25.598C50.4406 25.268 50.6406 24.648 50.4406 24.108C48.5406 18.868 45.8006 19.458 43.5606 17.438ZM49.7506 35.448C49.6971 35.2566 49.6059 35.0778 49.4825 34.922C49.3591 34.7663 49.2058 34.6366 49.0317 34.5407C48.8576 34.4448 48.6662 34.3846 48.4685 34.3635C48.2709 34.3425 48.071 34.361 47.8806 34.418C45.4806 35.138 42.0106 34.928 40.4606 33.368C38.3906 28.578 36.8206 27.728 34.3106 26.878C33.3106 26.538 32.3106 27.398 32.4106 28.438C32.4706 29.028 32.8606 29.528 33.4306 29.698C35.2106 30.228 37.0006 32.618 37.9206 35.058C38.7606 37.268 38.8606 40.178 36.9606 42.258C36.4706 42.798 36.3706 43.578 36.8006 44.168L36.8206 44.198C37.3706 44.958 38.4706 45.018 39.1106 44.328C39.7906 43.588 40.5006 42.628 40.8006 41.658C41.1106 40.628 41.0206 39.708 41.9106 38.888C42.9006 37.968 43.8406 38.158 45.0306 38.158C46.2506 38.158 47.5606 37.718 48.7106 37.308C49.4906 37.058 49.9906 36.228 49.7506 35.448ZM19.0906 49.008C18.7506 49.008 18.4206 48.998 18.0706 48.968C13.4406 48.568 11.0106 45.238 9.91063 41.588C8.81063 37.938 9.74063 33.968 9.74063 33.968C11.1406 44.768 16.7706 45.838 18.3306 45.978C21.2806 46.238 24.1006 44.958 24.8706 43.008C26.0906 39.928 22.3506 36.908 20.5206 35.038C19.3106 33.798 18.8606 31.688 19.1806 30.018C19.3406 29.158 19.7206 28.318 20.4306 27.768C21.1306 27.228 22.8906 26.738 22.6506 28.278C22.5806 28.758 22.2706 29.158 22.0806 29.598C20.7106 32.718 25.5806 35.608 26.9106 37.918C28.0006 39.788 28.4806 42.048 27.6606 44.108C26.5006 47.048 22.9906 49.008 19.0906 49.008Z" fill="white"/>
<path d="M18.0207 48.208C18.8307 48.308 19.6607 48.168 20.3907 47.808C21.0907 47.468 21.7207 46.928 22.4907 46.868C22.8607 46.848 23.3207 47.068 23.2607 47.428C23.2407 47.558 24.0907 47.798 23.9807 47.868C21.9907 49.108 16.9507 50.338 20.4307 59.268C20.7107 59.978 20.4907 60.778 19.8407 61.168C19.0807 61.628 18.0707 61.328 17.7107 60.518C16.7607 58.428 16.3007 56.118 16.3307 53.818C16.3607 51.578 16.5907 49.618 15.0907 47.748C14.9307 47.558 14.7607 47.288 14.8907 47.078C14.9707 46.948 15.1307 46.898 15.2807 46.858C15.9007 46.698 16.5607 46.528 17.1907 46.658C17.4707 46.718 20.6007 48.448 20.6307 48.388M107.231 62.648C105.161 62.398 103.031 62.548 101.071 63.288C99.4107 63.918 98.1707 65.188 96.2607 64.768C95.1207 64.518 94.1107 63.788 93.4007 62.858C91.9007 60.908 92.1007 58.858 92.6607 56.638C93.2207 54.438 93.1607 51.888 92.1707 49.818C91.9107 49.268 91.4707 48.778 90.9007 48.578C90.3207 48.378 89.6107 48.548 89.2707 49.058C88.9307 49.578 89.0607 50.268 89.1807 50.878C89.5707 52.748 90.0707 54.768 89.5107 56.598C88.9807 58.338 88.2507 59.898 87.0007 61.238C84.6307 63.788 81.1907 64.958 78.2207 64.208C76.0307 63.658 74.2607 62.128 73.0707 59.788C72.6507 57.958 72.2107 55.578 69.9407 55.318C69.4807 55.268 68.9807 55.338 68.6307 55.628C68.2807 55.928 68.1207 56.408 68.1207 56.868C68.1207 58.018 69.2207 58.878 69.4207 60.008C70.0507 63.468 67.7507 67.428 64.2607 69.348C61.5607 70.838 54.1507 71.678 47.5107 66.108C47.2307 65.868 47.2307 65.408 46.9607 65.158C46.7807 64.998 46.5507 64.898 46.3207 64.858C45.3307 64.668 44.3007 65.608 44.3907 66.608C44.4707 67.518 45.2207 68.218 45.8907 68.838C47.6307 70.458 46.8507 71.108 46.5507 71.978C46.4807 72.198 46.3507 72.398 46.3307 72.628C46.2707 73.268 47.2507 73.058 47.8907 73.008C48.5307 72.958 49.1107 72.608 49.7307 72.428C50.5107 72.208 54.0807 73.518 54.7807 73.668C56.8107 74.108 57.5107 74.308 59.2607 74.308C61.4507 74.308 63.3107 75.438 64.9107 73.938C67.1907 71.808 68.9607 70.418 70.9807 69.728C71.9807 69.388 73.1807 69.218 74.0207 69.868C74.6207 70.328 74.8907 71.098 75.1007 71.818C75.5307 73.298 75.8507 74.808 76.4807 76.218C77.1107 77.618 78.1107 78.928 79.5107 79.558C79.9507 79.758 80.4507 79.888 80.9307 79.778C81.4107 79.668 81.8307 79.258 81.8407 78.778C81.8507 78.448 81.6807 78.148 81.5007 77.878C80.8107 76.778 79.9907 75.758 79.3807 74.618C78.7707 73.478 78.3707 72.148 78.6207 70.878C79.0807 68.528 81.8007 67.868 83.7507 67.278C85.6207 66.708 87.4907 65.638 89.5007 65.748C90.7607 65.818 93.4307 67.288 94.2307 68.268C94.3907 68.468 94.4607 68.718 94.5007 68.978C94.8407 71.088 93.2907 72.988 91.8207 74.528C91.5607 74.798 91.2907 75.208 91.5107 75.518C91.5907 75.628 91.7107 75.688 91.8307 75.728C92.8907 76.138 94.1307 75.778 95.0307 75.088C97.0107 73.588 97.7007 71.018 99.3907 69.238C100.781 67.788 102.651 66.838 104.541 66.218C111.301 63.998 111.651 69.318 112.861 72.298C114.071 75.278 115.861 73.218 115.881 72.398C115.951 68.508 113.461 63.388 107.231 62.648Z" fill="white"/>
<path d="M43.9206 78.438C42.8906 78.378 42.2106 77.308 42.6306 76.358C43.3006 74.838 44.5606 73.328 46.1906 72.168C48.6706 70.408 51.1506 70.088 53.6406 70.798L54.1506 73.338C52.5406 72.878 49.6606 73.388 47.9306 74.618C46.6806 75.508 45.8206 76.598 45.4006 77.508C45.1306 78.098 44.5606 78.478 43.9206 78.438Z" fill="white"/>
<path d="M108.681 32.348C108.491 31.078 107.501 29.898 106.221 29.858C105.591 29.838 104.891 30.168 104.721 30.778C104.641 31.048 104.681 31.348 104.691 31.628C104.771 33.708 103.101 35.718 101.041 36.008C98.7106 36.338 96.9906 34.898 95.2306 33.698C93.5506 32.558 91.4506 31.788 89.5106 31.238C84.3406 29.788 79.8906 30.758 76.5006 35.028C75.2406 36.618 74.0406 38.358 72.2706 39.338C69.4906 40.878 63.6206 40.988 61.8906 37.968C59.6206 34.018 59.5406 21.878 66.8206 23.258C69.0706 23.688 70.7406 25.638 70.9006 27.088C71.0006 28.008 70.4306 28.808 69.7006 29.428C69.4317 29.6587 69.2538 29.9777 69.1988 30.3278C69.1438 30.6778 69.2154 31.036 69.4006 31.338C69.8806 32.128 70.9606 32.298 71.6606 31.708C73.7106 29.948 74.0306 28.098 73.8806 26.758C73.4106 22.488 68.6006 20.078 64.7806 19.968C63.9406 19.938 62.9706 19.668 62.6506 18.878C62.5106 18.538 62.5306 18.168 62.5006 17.808C62.3006 15.258 59.6906 12.488 57.6506 11.168C56.9006 10.678 55.8906 10.998 55.5006 11.798C55.1706 12.488 55.4306 13.298 56.0706 13.718C58.0106 14.998 59.1906 16.858 59.5806 19.258C60.0206 22.018 59.4206 24.838 58.2606 27.348C57.6806 28.608 56.9706 29.828 56.1406 30.948C55.4306 31.918 54.4206 32.568 53.9606 33.728C53.9106 33.858 53.8606 33.998 53.9006 34.128C53.9706 34.378 54.2806 34.448 54.5406 34.458C55.2806 34.488 56.0206 34.328 56.6806 34.018C56.3006 35.488 57.2806 36.918 58.0906 38.198C58.9006 39.478 59.5506 41.218 58.6306 42.428C58.5906 42.478 58.5406 42.528 58.5006 42.588C56.5306 43.418 54.6306 44.548 53.1506 46.108C50.6006 48.808 48.7106 51.238 44.9806 52.438C41.6806 53.508 38.0106 53.378 34.8006 52.088C34.1806 51.838 33.5506 51.548 32.8806 51.568C32.2106 51.588 31.5006 52.058 31.4806 52.728C31.4706 53.068 31.6406 53.378 31.7906 53.688C33.4906 57.138 30.3706 59.378 29.0406 62.378C27.7906 65.178 27.1506 68.248 27.1506 71.318C27.1506 74.668 28.3006 77.108 32.4506 81.368C34.3306 83.288 36.7906 84.428 38.8606 85.098C39.5106 85.308 39.9206 84.418 39.3406 84.048C35.0706 81.328 34.4006 78.918 33.1006 76.438C29.9806 70.468 33.3906 61.368 39.2606 56.748C41.5306 54.968 44.7506 55.108 47.4906 56.048C50.4306 57.058 52.1706 59.218 54.3806 61.228C54.9806 61.778 55.7506 62.368 56.5206 62.128C57.2206 61.918 57.5706 61.088 57.4906 60.368C57.4106 59.648 57.0006 59.008 56.6106 58.398C56.1806 57.728 55.7506 57.058 55.3106 56.388C54.7406 55.508 54.1506 54.588 53.9706 53.548C53.7706 52.418 54.7706 48.508 64.2706 46.088C65.8806 45.678 67.5206 45.858 69.1406 46.318C71.3206 46.938 72.8806 48.538 74.7106 49.788C75.2206 50.138 75.7806 50.508 76.4006 50.528C77.1806 50.558 77.9406 49.968 78.1006 49.198C78.3206 48.138 77.5206 47.188 76.9906 46.248C75.2306 43.148 77.2806 39.008 79.8706 37.028C82.1906 35.268 85.2406 34.618 88.1306 34.918C92.5306 35.368 96.8706 38.308 97.8806 42.608C98.1106 43.578 98.3906 44.828 99.3806 44.958C100.481 45.108 101.071 43.638 100.961 42.528C100.851 41.418 100.491 40.168 101.181 39.288C101.501 38.888 101.981 38.658 102.451 38.448C103.801 37.858 105.211 37.368 106.421 36.518C107.631 35.678 108.641 34.388 108.731 32.918C108.721 32.748 108.711 32.548 108.681 32.348Z" fill="white"/>
<path d="M54.5306 34.448C55.2706 34.478 56.0106 34.318 56.6706 34.008C56.2906 35.478 57.2706 36.908 58.0806 38.188C58.6706 39.128 59.4906 40.798 58.6006 42.508C58.6006 42.508 59.9406 41.758 62.1106 41.128C64.2806 40.498 66.4006 40.358 66.4006 40.358C64.8606 40.038 62.5806 39.168 61.8806 37.958C59.6106 34.008 59.5306 21.868 66.8106 23.248C69.0606 23.678 70.7306 25.628 70.8906 27.078C70.9906 27.998 70.4206 28.798 69.6906 29.418C69.4217 29.6487 69.2438 29.9677 69.1888 30.3178C69.1338 30.6678 69.2054 31.026 69.3906 31.328C69.8706 32.118 70.9506 32.288 71.6506 31.698C73.7006 29.938 74.0206 28.088 73.8706 26.748C73.4006 22.478 68.5906 20.068 64.7706 19.958C63.9306 19.928 62.9606 19.658 62.6406 18.868C62.5006 18.528 62.5206 18.158 62.4906 17.798C62.2906 15.248 59.6806 12.478 57.6406 11.158C56.8906 10.668 55.8806 10.988 55.4906 11.788C55.1606 12.478 55.4206 13.288 56.0606 13.708C58.0006 14.988 59.1806 16.848 59.5706 19.248C60.0106 22.008 59.4106 24.828 58.2506 27.338C57.6706 28.598 56.9606 29.818 56.1306 30.938C55.4206 31.908 54.4106 32.558 53.9506 33.718C53.9006 33.848 53.8506 33.988 53.8906 34.118C53.9606 34.368 54.2706 34.438 54.5306 34.448Z" fill="white"/>
<path d="M119.171 42.8636L119.171 42.8634L119.171 42.863L119.171 42.8596L119.17 42.844C119.17 42.8354 119.169 42.8238 119.169 42.8095C119.168 42.8004 119.168 42.7903 119.167 42.779C119.165 42.7207 119.16 42.6332 119.153 42.5185C119.138 42.289 119.111 41.9512 119.066 41.5225C118.976 40.6649 118.812 39.4451 118.512 38.0034C117.913 35.1162 116.779 31.3579 114.643 27.8374C112.822 24.8357 110.62 23.1932 108.886 22.3001C108.017 21.8527 107.263 21.5926 106.731 21.4448C106.466 21.3709 106.255 21.3252 106.114 21.2983C106.044 21.2849 105.99 21.2761 105.956 21.2709C105.939 21.2683 105.927 21.2665 105.919 21.2655L105.912 21.2646L105.912 21.2646L105.912 21.2645L105.911 21.2645L105.911 21.2645L105.577 21.2251L105.488 20.9001L105.488 20.9L105.488 20.8998L105.488 20.8995L105.488 20.8993L105.487 20.8936L105.479 20.8659C105.471 20.8404 105.459 20.8009 105.442 20.7488C105.408 20.6445 105.355 20.4893 105.28 20.2925C105.129 19.8987 104.889 19.3396 104.536 18.689C103.829 17.3866 102.674 15.7266 100.878 14.2883C99.0766 12.8451 96.2901 11.4996 93.9177 10.5068C92.7383 10.0132 91.6739 9.61184 90.9043 9.33392C90.5197 9.19501 90.2091 9.08708 89.9951 9.01401C89.8881 8.97748 89.8053 8.94968 89.7495 8.93109L89.6864 8.91019L89.6707 8.90503L89.667 8.9038L89.6661 8.90352L89.666 8.90347L89.6401 8.89507L89.6154 8.88392C82.0424 5.4731 75.9182 5.17279 71.7041 5.71149C69.5948 5.98112 67.9595 6.46159 66.8565 6.87168C66.305 7.07672 65.8867 7.26413 65.609 7.3987C65.4701 7.46597 65.3664 7.52002 65.2988 7.55644C65.265 7.57465 65.2403 7.58845 65.2246 7.59728L65.2081 7.60675L65.2053 7.60835L65.2049 7.60856L65.2049 7.6086L65.2047 7.60871L65.0315 7.71116L64.8352 7.6645L64.8351 7.66447L64.8348 7.66441L64.8325 7.66387L64.8217 7.66136L64.7758 7.65093C64.7344 7.64167 64.6717 7.62794 64.5886 7.61053C64.4223 7.5757 64.1742 7.52617 63.8509 7.46831C63.2041 7.35259 62.2568 7.20361 61.0619 7.07238C58.6716 6.80985 55.2941 6.6187 51.3532 6.90546C43.47 7.47908 33.355 9.9627 24.3641 17.5893L24.3136 17.6322L24.2538 17.6604L24.2537 17.6604L24.2536 17.6604L24.2529 17.6607L24.249 17.6626L24.2313 17.6711C24.2152 17.6789 24.1906 17.6908 24.158 17.7069C24.0927 17.7391 23.9953 17.788 23.8692 17.8534C23.6171 17.9842 23.2507 18.1811 22.7984 18.4432C21.8933 18.9675 20.6466 19.7511 19.2845 20.7861C16.5537 22.8611 13.3921 25.9212 11.5651 29.8966C10.5751 32.0587 10.2804 34.9446 10.2444 37.3356C10.2265 38.5226 10.2725 39.571 10.3229 40.3224C10.3481 40.6978 10.3743 40.9985 10.3942 41.2045C10.4041 41.3075 10.4125 41.3868 10.4183 41.4399L10.4249 41.4996L10.4266 41.5141L10.427 41.5174L10.4271 41.5181L10.4271 41.5182L10.4535 41.7371L10.3096 41.9042C4.1411 49.0702 5.82264 60.4711 12.7777 66.1813C16.1174 68.9137 20.237 70.7219 24.5239 71.1809C24.8576 71.2157 25.1544 71.2271 25.4401 71.2381C25.505 71.2406 25.5694 71.2431 25.6335 71.2458C25.9669 71.26 26.3092 71.2811 26.629 71.366C26.9643 71.4551 27.2758 71.6136 27.5559 71.8947C27.828 72.1678 28.0485 72.5347 28.2431 73.0078L28.2432 73.008C28.3931 73.373 28.5373 73.7352 28.6798 74.0931C29.5689 76.3269 30.3905 78.3909 32.1286 79.9005C34.2503 81.7386 36.7274 83.1689 39.3649 84.1494C44.4851 86.0422 50.2632 86.2439 55.4119 84.3974C55.9065 84.2194 56.6335 84.0927 57.4084 83.9981C58.1951 83.9021 59.0721 83.8348 59.8881 83.7876C60.7051 83.7404 61.4662 83.713 62.0228 83.6974C62.3013 83.6897 62.5289 83.6848 62.6871 83.6819C62.7662 83.6805 62.828 83.6795 62.8701 83.6789L62.9183 83.6783L62.9309 83.6781L62.9341 83.6781L62.935 83.6781H62.9352C62.9353 83.6781 62.9354 83.6781 62.9407 84.178L62.9354 83.6781L63.118 83.6761L63.2556 83.7896L63.2566 83.7905C63.2588 83.7922 63.2641 83.7962 63.2724 83.8023C63.2891 83.8146 63.3185 83.8354 63.3616 83.8634C63.4478 83.9195 63.5891 84.0046 63.7947 84.1084C64.2059 84.3158 64.875 84.5983 65.8752 84.872C67.8763 85.4196 71.2016 85.9319 76.4322 85.7384C81.6275 85.5461 85.3089 84.3303 87.9856 83.0636C89.3274 82.4286 90.421 81.7789 91.3403 81.2277C91.385 81.2008 91.4295 81.1741 91.4736 81.1476C92.317 80.6415 93.0551 80.1984 93.6844 79.9765L93.685 79.9763C94.1275 79.8208 94.5997 79.617 95.1069 79.3962L95.1769 79.3657C95.6577 79.1562 96.1666 78.9346 96.6821 78.7421C97.754 78.3419 98.9329 78.036 100.081 78.2462M119.171 42.8636L119.177 43.0547L119.308 43.1925L119.308 43.1926L119.309 43.1928C119.309 43.1929 119.309 43.193 119.385 43.1203L119.309 43.1931L119.309 43.1935L119.316 43.2003C119.322 43.2069 119.332 43.2177 119.345 43.2328C119.372 43.263 119.414 43.3103 119.468 43.375C119.576 43.5043 119.736 43.703 119.932 43.9732C120.325 44.5137 120.867 45.3403 121.449 46.4705C122.611 48.7298 123.932 52.2061 124.535 57.0399L124.535 57.0399C125.135 61.8538 125.108 67.719 123.441 72.4971C122.61 74.8808 121.378 76.9734 119.632 78.5359C117.892 80.0937 115.617 81.1469 112.655 81.4201L112.655 81.4202C109.522 81.7102 106.313 80.9665 103.437 79.5872L103.436 79.5866C103.256 79.5008 103.072 79.4098 102.884 79.3169C102.028 78.8937 101.094 78.4312 100.081 78.2462M119.171 42.8636C119.171 42.8635 119.171 42.8634 119.671 42.848L119.171 42.8636ZM100.081 78.2462L99.9907 78.738L100.081 78.2462C100.081 78.2462 100.081 78.2462 100.081 78.2462Z" stroke="white"/>
</g>
<defs>
<clipPath id="clip0_111_300">
<rect width="133" height="91" fill="white"/>
</clipPath>
</defs>
</svg>
